# ProBuilder 5.0.6
# https://unity3d.com/unity/features/worldbuilding/probuilder
# 10/22/2022 8:03:08 PM

mtllib ./Palang.mtl
o Palang

g Cube (1)
v 39.61509 -4.83558 -20.39256
v 39.61509 -4.83558 -25.18714
v 39.18331 -4.83558 -20.39256
v 39.18331 -4.83558 -25.18714
v 39.61509 -3.937474 -25.18714
v 39.61509 -3.937474 -20.39256
v 39.18331 -3.937474 -25.18714
v 39.18331 -3.937474 -20.39256
v 39.18331 -4.05642 -20.39256
v 39.18331 -4.05642 -25.18714
v 39.62501 -3.947397 -25.18714
v 39.62501 -4.046496 -25.18714
v 39.62501 -3.947397 -20.39256
v 39.62501 -4.046496 -20.39256
v 39.61509 -4.05642 -20.39256
v 39.61509 -4.05642 -25.18714

vt 1.675654 -0.8325197
vt -7.98713 -0.8325197
vt 1.675654 0.03767125
vt -7.98713 0.03767125
vt 7.98713 -0.8325198
vt -1.675654 -0.8325198
vt 7.98713 0.03767122
vt -1.675654 0.03767122
vt -0.7386808 1.675654
vt -0.498962 1.675654
vt -0.7386808 -7.98713
vt -0.498962 -7.98713
vt 0.718681 -7.98713
vt 0.5189621 -7.98713
vt 0.718681 1.675654
vt 0.5189621 1.675654
vt 0.9414997 1.675654
vt 0.9414997 -7.98713
vt 0.969784 1.675654
vt 0.969784 -7.98713
vt -0.06635423 -7.98713
vt -0.06635423 1.675654
vt -0.09463847 -7.98713
vt -0.09463847 1.675654
vt 0.5189619 -0.8525198
vt 0.4989619 -0.8325198
vt 0.498962 0.0376712
vt 0.7386808 0.03767117
vt 0.7386808 -0.8325198
vt 0.7186808 -0.8525198
vt -0.7186808 -0.8525198
vt -0.7386808 -0.8325198
vt -0.7386808 0.03767117
vt -0.498962 0.0376712
vt -0.4989619 -0.8325198
vt -0.5189619 -0.8525198
vt 0.4989601 1.675654
vt 0.4989601 -7.98713
vt -1.071325 1.675654
vt -1.071325 -7.98713
vt -1.071323 0.03767138
vt -1.071323 -0.8325232
vt 1.071323 -0.8325232
vt 1.071323 0.03767138
vt 1.071323 -7.98713
vt 1.071323 1.675654

vn -8.823378E-09 -0.4961901 0
vn -2.51634E-08 0.4961901 0
vn -0.4961901 2.536876E-09 0
vn 0.4961901 -8.893385E-08 0
vn 0.3508594 -0.3508593 0
vn 0.3508593 0.3508594 0
vn 0 0 0.49619
vn 0 0 -0.49619

usemtl Wall
f 14/25/7 13/30/7 6/29/7
f 6/29/7 15/26/7 14/25/7
f 8/28/7 15/26/7 6/29/7
f 15/26/7 8/28/7 9/27/7
f 10/34/8 7/33/8 16/35/8
f 5/32/8 16/35/8 7/33/8
f 12/36/8 16/35/8 5/32/8
f 5/32/8 11/31/8 12/36/8
f 4/4/1 2/2/1 1/1/1
f 1/1/1 3/3/1 4/4/1
f 8/8/2 6/6/2 5/5/2
f 5/5/2 7/7/2 8/8/2
f 10/12/3 9/10/3 8/9/3
f 8/9/3 7/11/3 10/12/3
f 14/16/4 12/14/4 11/13/4
f 11/13/4 13/15/4 14/16/4
f 14/19/5 15/17/5 16/18/5
f 16/18/5 12/20/5 14/19/5
f 11/23/6 5/21/6 6/22/6
f 6/22/6 13/24/6 11/23/6
f 2/40/4 16/38/4 15/37/4
f 15/37/4 1/39/4 2/40/4
f 1/42/7 15/26/7 9/27/7
f 9/27/7 3/41/7 1/42/7
f 4/44/8 10/34/8 16/35/8
f 16/35/8 2/43/8 4/44/8
f 3/46/3 9/10/3 10/12/3
f 10/12/3 4/45/3 3/46/3

